<svg width="24" height="24" viewBox="0 0 24 24" fill="none" xmlns="http://www.w3.org/2000/svg">
<mask id="mask0_7474_23588" style="mask-type:alpha" maskUnits="userSpaceOnUse" x="0" y="0" width="24" height="24">
<rect width="24" height="24" fill="#D9D9D9"/>
</mask>
<g mask="url(#mask0_7474_23588)">
<path d="M9.00861 15.8889H14.9914C15.2456 15.8889 15.4588 15.8029 15.6308 15.6308C15.8029 15.4588 15.8889 15.2456 15.8889 14.9914V9.00861C15.8889 8.75435 15.8029 8.5412 15.6308 8.36917C15.4588 8.19713 15.2456 8.11111 14.9914 8.11111H9.00861C8.75435 8.11111 8.5412 8.19713 8.36917 8.36917C8.19713 8.5412 8.11111 8.75435 8.11111 9.00861V14.9914C8.11111 15.2456 8.19713 15.4588 8.36917 15.6308C8.5412 15.8029 8.75435 15.8889 9.00861 15.8889ZM12.0036 22C10.6208 22 9.32074 21.7376 8.10333 21.2128C6.88611 20.688 5.82722 19.9757 4.92667 19.0761C4.02611 18.1765 3.31324 17.1185 2.78806 15.9022C2.26269 14.6861 2 13.3866 2 12.0036C2 10.6208 2.26241 9.32074 2.78722 8.10333C3.31204 6.88611 4.02426 5.82722 4.92389 4.92667C5.82352 4.02611 6.88148 3.31324 8.09778 2.78806C9.31389 2.26269 10.6134 2 11.9964 2C13.3792 2 14.6793 2.26241 15.8967 2.78722C17.1139 3.31204 18.1728 4.02426 19.0733 4.92389C19.9739 5.82352 20.6868 6.88148 21.2119 8.09778C21.7373 9.31389 22 10.6134 22 11.9964C22 13.3792 21.7376 14.6793 21.2128 15.8967C20.688 17.1139 19.9757 18.1728 19.0761 19.0733C18.1765 19.9739 17.1185 20.6868 15.9022 21.2119C14.6861 21.7373 13.3866 22 12.0036 22ZM12 20.8889C14.4815 20.8889 16.5833 20.0278 18.3056 18.3056C20.0278 16.5833 20.8889 14.4815 20.8889 12C20.8889 9.51852 20.0278 7.41667 18.3056 5.69444C16.5833 3.97222 14.4815 3.11111 12 3.11111C9.51852 3.11111 7.41667 3.97222 5.69444 5.69444C3.97222 7.41667 3.11111 9.51852 3.11111 12C3.11111 14.4815 3.97222 16.5833 5.69444 18.3056C7.41667 20.0278 9.51852 20.8889 12 20.8889Z" fill="white"/>
</g>
</svg>
