<svg width="32" height="32" viewBox="0 0 32 32" fill="none" xmlns="http://www.w3.org/2000/svg">
<path d="M0 8C0 3.58172 3.58172 0 8 0H24C28.4183 0 32 3.58172 32 8V24C32 28.4183 28.4183 32 24 32H8C3.58172 32 0 28.4183 0 24V8Z" fill="#F9FCFF"/>
<ellipse cx="21.9468" cy="10.1102" rx="2.05229" ry="1.97912" fill="url(#paint0_radial_6455_4972)"/>
<path d="M17.4294 13.1243L17.6433 13.1243L17.4294 9.33467C16.2534 8.6887 14.5856 8.36572 13.2813 8.36572C10.352 8.36572 8 9.87297 8 12.7152C8 17.4092 15.334 17.1723 15.334 21.0696C15.334 22.9214 14.0511 23.6535 12.8323 23.6535C10.4589 23.6535 8.94081 21.5864 8.2352 18.7872L8.02138 18.7872L8.2352 22.7922C9.41121 23.4382 11.2714 23.8688 12.8109 23.8688C15.6761 23.8688 18.3061 22.4046 18.3061 19.0887C18.3061 14.2009 10.9721 14.2655 10.9721 10.5835C10.9721 9.16241 12.0626 8.58104 13.3027 8.58104C15.3126 8.58104 16.7238 10.7988 17.4294 13.1243Z" fill="#045CFC"/>
<defs>
<radialGradient id="paint0_radial_6455_4972" cx="0" cy="0" r="1" gradientTransform="matrix(-2.04864 2.55761 -2.65215 -2.21649 23.3161 8.74121)" gradientUnits="userSpaceOnUse">
<stop stop-color="#045CFC" stop-opacity="0.6"/>
<stop offset="1" stop-color="#045CFC"/>
</radialGradient>
</defs>
</svg>
