<svg width="400" height="100" viewBox="0 0 400 100" fill="none" xmlns="http://www.w3.org/2000/svg">
<g clip-path="url(#clip0_7421_39545)">
<path d="M36.293 3.55469H129.181V96.442H36.293V3.55469Z" fill="#0A0A0A"/>
<path fill-rule="evenodd" clip-rule="evenodd" d="M112.46 61.1449L82.7358 21.2031L53.0117 61.1449H69.9226L82.7358 43.927L95.5491 61.1449H112.46Z" fill="white"/>
<path fill-rule="evenodd" clip-rule="evenodd" d="M69.7344 61.1445L82.7387 78.7932L95.743 61.1445H88.3444L82.7387 68.7524L77.1329 61.1445H69.7344Z" fill="white"/>
</g>
<path d="M176.98 76.8828C173.203 76.8828 169.77 76.1471 166.68 74.6758C163.64 73.1555 161.212 70.9731 159.398 68.1286C157.632 65.235 156.749 61.7775 156.749 57.7559C156.749 53.7834 157.656 50.3749 159.471 47.5304C161.286 44.6369 163.64 42.4299 166.533 40.9096C169.427 39.3892 172.492 38.6291 175.729 38.6291C179.505 38.6291 182.669 39.4138 185.219 40.9831C187.769 42.5035 189.682 44.5878 190.957 47.2362C192.281 49.8354 192.943 52.8026 192.943 56.1375C192.943 57.1184 192.87 58.0747 192.722 59.0065C192.624 59.8893 192.526 60.5514 192.428 60.9928H164.768V53.7099H185.145L183.453 55.7697C183.453 52.8271 182.816 50.6201 181.541 49.1488C180.314 47.6285 178.5 46.8683 176.097 46.8683C174.331 46.8683 172.786 47.2607 171.462 48.0454C170.138 48.8301 169.108 50.0316 168.372 51.65C167.637 53.2685 167.269 55.3038 167.269 57.7559C167.269 60.2571 167.71 62.3169 168.593 63.9354C169.476 65.5048 170.751 66.6818 172.418 67.4665C174.086 68.2512 176.097 68.6435 178.451 68.6435C180.118 68.6435 181.688 68.4228 183.159 67.9814C184.679 67.54 186.249 66.9025 187.867 66.0687L191.472 72.616C189.363 73.9402 187.033 74.9946 184.483 75.7793C181.933 76.515 179.432 76.8828 176.98 76.8828ZM223.149 76.8828C219.275 76.8828 216.185 76.2207 213.88 74.8965C211.624 73.5233 209.981 71.6352 208.951 69.232C207.922 66.8289 207.407 64.0335 207.407 60.8456V47.9718H198.285V39.9532L207.922 39.5118L209.319 28.33H218.221V39.5118H233.669V47.9718H218.221V60.7721C218.221 62.5867 218.49 64.058 219.03 65.186C219.569 66.314 220.403 67.1477 221.531 67.6872C222.659 68.1776 224.106 68.4228 225.871 68.4228C227.294 68.4228 228.593 68.3002 229.77 68.055C230.947 67.8098 232.075 67.491 233.154 67.0987L235.067 74.8965C233.449 75.387 231.658 75.8283 229.697 76.2207C227.784 76.6621 225.602 76.8828 223.149 76.8828ZM241.806 76V24.4311H252.62V37.0842L252.032 44.0729H252.252C253.626 42.6506 255.293 41.4 257.255 40.3211C259.266 39.1931 261.644 38.6291 264.391 38.6291C268.51 38.6291 271.502 39.9532 273.366 42.6016C275.278 45.2499 276.235 48.8791 276.235 53.4892V76H265.421V54.8869C265.421 52.4347 265.004 50.6447 264.17 49.5167C263.385 48.3887 262.012 47.8247 260.05 47.8247C258.579 47.8247 257.279 48.168 256.151 48.8546C255.072 49.4921 253.895 50.424 252.62 51.65V76H241.806ZM294.818 76.8828C290.649 76.8828 287.633 75.5586 285.769 72.9103C283.906 70.2619 282.974 66.6327 282.974 62.0227V39.5118H293.788V60.625C293.788 63.0771 294.156 64.8672 294.891 65.9952C295.676 67.1232 297.074 67.6872 299.084 67.6872C300.458 67.6872 301.684 67.3929 302.763 66.8044C303.842 66.2159 304.994 65.1124 306.22 63.494V39.5118H317.034V76H308.207L307.397 70.7769H307.103C305.485 72.5915 303.695 74.0628 301.733 75.1908C299.771 76.3188 297.466 76.8828 294.818 76.8828ZM339.296 76V47.9718H324.583V39.5118H350.11V76H339.296ZM344.225 33.7738C342.165 33.7738 340.448 33.1853 339.075 32.0082C337.702 30.7822 337.015 29.1882 337.015 27.2265C337.015 25.2157 337.702 23.5973 339.075 22.3712C340.448 21.0961 342.165 20.4586 344.225 20.4586C346.333 20.4586 348.05 21.0961 349.374 22.3712C350.747 23.5973 351.434 25.2157 351.434 27.2265C351.434 29.1882 350.747 30.7822 349.374 32.0082C348.05 33.1853 346.333 33.7738 344.225 33.7738Z" fill="#0A0A0A"/>
<defs>
<clipPath id="clip0_7421_39545">
<rect width="92.8878" height="92.8878" fill="white" transform="translate(36.293 3.55469)"/>
</clipPath>
</defs>
</svg>
