<svg width="400" height="149" viewBox="0 0 400 149" fill="none" xmlns="http://www.w3.org/2000/svg">
<path d="M0 67.6568C0 43.5458 19.5458 24 43.6568 24H56.8457C80.9567 24 100.503 43.5458 100.503 67.6568V80.8452C100.503 104.956 80.9567 124.502 56.8457 124.502H43.6568C19.5458 124.502 0 104.956 0 80.8453L0 67.6568Z" fill="#161616"/>
<path d="M82.4111 86.3096H64.1143L50.25 67.6797L36.3867 86.3096H18.0898L50.25 43.0938L82.4111 86.3096Z" fill="#F1F1F1"/>
<path d="M36.1797 86.3115L44.1846 86.3115L50.25 94.543L56.3154 86.3115L64.3203 86.3115L50.25 105.406L36.1797 86.3115Z" fill="#F1F1F1"/>
<path d="M130.652 95.409V53.5173H135.792V95.409H130.652Z" fill="#161616"/>
<path d="M144.454 95.409V63.9902H149.045V71.5831L148.294 70.594C148.66 69.6242 149.132 68.7321 149.709 67.9175C150.306 67.103 150.97 66.4339 151.701 65.9102C152.51 65.2508 153.424 64.7466 154.444 64.3975C155.464 64.0484 156.503 63.8447 157.562 63.7866C158.621 63.709 159.612 63.7769 160.536 63.9902V68.8485C159.458 68.5576 158.274 68.48 156.985 68.6157C155.695 68.7515 154.502 69.2267 153.405 70.0412C152.404 70.7588 151.624 71.6316 151.066 72.6595C150.527 73.6874 150.152 74.8025 149.94 76.005C149.728 77.188 149.622 78.4002 149.622 79.6414V95.409H144.454Z" fill="#161616"/>
<path d="M178.712 96.2817C175.614 96.2817 172.938 95.5738 170.686 94.158C168.453 92.7423 166.731 90.7834 165.518 88.2816C164.305 85.7797 163.699 82.9093 163.699 79.6705C163.699 76.3735 164.315 73.4837 165.547 71.0012C166.779 68.5188 168.521 66.589 170.773 65.212C173.025 63.8156 175.671 63.1175 178.712 63.1175C181.831 63.1175 184.516 63.8253 186.768 65.2411C189.02 66.6375 190.742 68.5866 191.936 71.0885C193.148 73.571 193.755 76.4316 193.755 79.6705C193.755 82.9481 193.148 85.8379 191.936 88.3397C190.723 90.8222 188.991 92.7713 186.739 94.1871C184.487 95.5835 181.811 96.2817 178.712 96.2817ZM178.712 91.3653C181.946 91.3653 184.352 90.2792 185.93 88.107C187.509 85.9349 188.298 83.1227 188.298 79.6705C188.298 76.1213 187.499 73.2995 185.901 71.2049C184.304 69.0909 181.908 68.0339 178.712 68.0339C176.537 68.0339 174.747 68.5285 173.342 69.5176C171.937 70.5067 170.888 71.874 170.195 73.6195C169.502 75.365 169.156 77.382 169.156 79.6705C169.156 83.2003 169.964 86.0318 171.581 88.1652C173.198 90.2986 175.575 91.3653 178.712 91.3653Z" fill="#161616"/>
<path d="M222.314 95.409V79.6705C222.314 78.1771 222.179 76.742 221.909 75.365C221.659 73.988 221.207 72.7564 220.552 71.6703C219.917 70.5649 219.051 69.6921 217.954 69.0521C216.876 68.4121 215.51 68.0921 213.854 68.0921C212.565 68.0921 211.391 68.3151 210.332 68.7612C209.293 69.1879 208.397 69.8473 207.647 70.7394C206.896 71.6316 206.309 72.7564 205.886 74.114C205.481 75.4522 205.279 77.0329 205.279 78.8559L201.901 77.8086C201.901 74.7637 202.44 72.1552 203.518 69.983C204.615 67.7915 206.146 66.1139 208.109 64.9502C210.091 63.7672 212.42 63.1756 215.096 63.1756C217.117 63.1756 218.839 63.4956 220.264 64.1357C221.688 64.7757 222.872 65.629 223.815 66.6957C224.758 67.743 225.499 68.9261 226.038 70.2449C226.577 71.5443 226.952 72.8728 227.164 74.2304C227.395 75.5686 227.511 76.8389 227.511 78.0414V95.409H222.314ZM200.082 95.409V63.9902H204.702V72.3976H205.279V95.409H200.082Z" fill="#161616"/>
<path d="M243.88 95.409L231.841 53.5173H237.211L246.45 86.6524L255.66 53.5464L261.059 53.5173L270.298 86.6524L279.508 53.5173H284.907L272.868 95.409H267.728L258.374 62.5647L249.02 95.409H243.88Z" fill="#161616"/>
<path d="M296.098 96.2817C293.769 96.2817 291.815 95.855 290.237 95.0017C288.678 94.129 287.494 92.9847 286.685 91.5689C285.896 90.1531 285.502 88.6016 285.502 86.9143C285.502 85.2658 285.81 83.8403 286.426 82.6378C287.061 81.416 287.946 80.4075 289.082 79.6123C290.217 78.7978 291.574 78.1577 293.153 77.6923C294.635 77.285 296.29 76.9359 298.119 76.645C299.966 76.3347 301.833 76.0535 303.72 75.8013C305.606 75.5492 307.367 75.3068 309.003 75.074L307.155 76.1504C307.213 73.3576 306.655 71.2922 305.481 69.9539C304.326 68.6157 302.324 67.9466 299.476 67.9466C297.589 67.9466 295.934 68.383 294.51 69.2558C293.105 70.1091 292.113 71.5055 291.536 73.4449L286.656 71.9613C287.407 69.2073 288.86 67.0448 291.016 65.4739C293.172 63.9029 296.011 63.1175 299.533 63.1175C302.363 63.1175 304.788 63.6314 306.809 64.6593C308.849 65.6678 310.312 67.2 311.197 69.2558C311.64 70.2255 311.919 71.2825 312.035 72.4267C312.15 73.5516 312.208 74.7346 312.208 75.9759V95.409H307.646V87.8743L308.714 88.5725C307.54 91.1131 305.895 93.0332 303.777 94.3326C301.679 95.632 299.119 96.2817 296.098 96.2817ZM296.877 91.9471C298.725 91.9471 300.322 91.6174 301.67 90.958C303.036 90.2792 304.133 89.3967 304.961 88.3107C305.789 87.2052 306.328 86.0027 306.578 84.7033C306.867 83.7336 307.021 82.6572 307.04 81.4742C307.078 80.2717 307.098 79.3505 307.098 78.7105L308.888 79.4959C307.213 79.7287 305.567 79.9517 303.951 80.1651C302.334 80.3784 300.804 80.6111 299.36 80.8632C297.916 81.096 296.617 81.3772 295.462 81.7069C294.615 81.9784 293.817 82.3275 293.066 82.7542C292.335 83.1809 291.738 83.7336 291.276 84.4124C290.833 85.0718 290.612 85.8961 290.612 86.8852C290.612 87.7385 290.824 88.5531 291.247 89.3289C291.69 90.1046 292.363 90.7349 293.268 91.2198C294.192 91.7047 295.395 91.9471 296.877 91.9471Z" fill="#161616"/>
<path d="M320.292 95.409V52.6445H325.431V95.409H320.292Z" fill="#161616"/>
<path d="M334.671 95.409V52.6445H339.811V95.409H334.671Z" fill="#161616"/>
<path d="M361.985 96.2817C358.925 96.2817 356.25 95.6029 353.959 94.2453C351.688 92.8683 349.917 90.958 348.647 88.5143C347.376 86.0512 346.741 83.1809 346.741 79.9032C346.741 76.4704 347.367 73.5031 348.618 71.0012C349.869 68.48 351.611 66.5405 353.844 65.1829C356.096 63.806 358.733 63.1175 361.754 63.1175C364.892 63.1175 367.558 63.8447 369.752 65.2993C371.965 66.7539 373.621 68.8291 374.718 71.5249C375.834 74.2207 376.315 77.4305 376.161 81.1542H370.965V79.2923C370.907 75.4328 370.127 72.5528 368.626 70.6521C367.125 68.7321 364.892 67.7721 361.928 67.7721C358.752 67.7721 356.336 68.8 354.681 70.8558C353.026 72.9116 352.198 75.8595 352.198 79.6996C352.198 83.4039 353.026 86.2743 354.681 88.3107C356.336 90.3471 358.694 91.3653 361.754 91.3653C363.814 91.3653 365.604 90.8901 367.125 89.9398C368.645 88.9895 369.839 87.6222 370.705 85.8379L375.642 87.5543C374.429 90.3277 372.601 92.4804 370.156 94.0126C367.731 95.5253 365.007 96.2817 361.985 96.2817ZM350.466 81.1542V76.9941H373.505V81.1542H350.466Z" fill="#161616"/>
<path d="M399.999 95.409C398.151 95.7775 396.323 95.9229 394.513 95.8453C392.723 95.7872 391.126 95.4284 389.721 94.769C388.316 94.0902 387.247 93.0429 386.516 91.6271C385.9 90.3859 385.563 89.1349 385.506 87.8743C385.467 86.5943 385.448 85.1494 385.448 83.5397V55.2628H390.587V83.3069C390.587 84.587 390.597 85.6827 390.616 86.5943C390.654 87.5058 390.856 88.2913 391.222 88.9507C391.915 90.1919 393.012 90.9192 394.513 91.1325C396.034 91.3459 397.863 91.2877 399.999 90.958V95.409ZM379.125 68.2666V63.9902H399.999V68.2666H379.125Z" fill="#161616"/>
</svg>
