<svg viewBox="0 0 262.279 24.8396" fill="none" xmlns="http://www.w3.org/2000/svg">
<g id="Stables-Logo">
<g id="Group">
<path id="Vector" d="M76.5502 7.11731C78.2672 7.11731 79.659 5.78412 79.659 4.13955C79.659 2.49498 78.2672 1.16179 76.5502 1.16179C74.8333 1.16179 73.4414 2.49498 73.4414 4.13955C73.4414 5.78412 74.8333 7.11731 76.5502 7.11731Z" fill="var(--fill-0, #403F4C)"/>
<path id="Vector_2" d="M14.2853 8.67458H14.6091L14.2853 2.97343C12.5038 2.00197 9.97668 1.5158 8.00079 1.5158C3.56285 1.5158 0 3.78341 0 8.05906C0 15.1206 11.1105 14.7647 11.1105 20.6273C11.1105 23.4132 9.16671 24.5149 7.32017 24.5149C3.72433 24.5149 1.42462 21.4051 0.355939 17.1937H0.0321208L0.355939 23.2187C2.13737 24.1902 4.95535 24.8387 7.28805 24.8387C11.6288 24.8387 15.6127 22.6362 15.6127 17.6478C15.6127 10.2945 4.50218 10.3918 4.50218 4.85298C4.50218 2.71472 6.15426 1.84049 8.03291 1.84049C11.0775 1.84049 13.2157 5.1768 14.2844 8.67544L14.2853 8.67458Z" fill="var(--fill-0, #403F4C)"/>
<path id="Vector_3" d="M28.5541 10.5854V21.1135C27.9065 21.6639 26.9672 22.4096 25.4766 22.4096C24.3107 22.4096 23.7273 21.6318 23.7273 20.3686V7.99486H23.1439L16.4063 8.77272V9.09654C18.1234 9.25889 18.317 9.38824 18.317 10.5863V19.9806C18.317 23.5434 20.358 24.8396 22.755 24.8396C25.1519 24.8396 27.0636 23.382 28.5533 21.4382H28.7156L28.845 24.8396H29.1688L35.8743 24.0626V23.7388C34.158 23.5764 33.9635 23.4471 33.9635 22.249V7.99573H33.3802L25.9949 8.77359V9.09741C28.3597 9.25976 28.5541 9.38911 28.5541 10.5872V10.5854Z" fill="var(--fill-0, #403F4C)"/>
<path id="Vector_4" d="M43.1735 10.391H43.0112L43.1735 0.867402H42.8497L35.8525 1.64526V1.96909C37.5688 2.13143 37.7632 2.26078 37.7632 3.45883V24.6764H38.0871L40.7106 22.895C42.3627 24.4177 44.3707 24.8388 46.0227 24.8388C50.5579 24.8388 54.1208 21.6318 54.1208 16.4169C54.1208 11.5578 51.6917 7.99492 47.6097 7.99492C45.6659 7.99492 44.2083 8.93426 43.1718 10.3919L43.1735 10.391ZM45.1173 9.93785C46.9638 9.93785 48.4214 11.9459 48.4214 16.6756C48.4214 20.7897 47.6436 24.3848 45.5704 24.3848C44.6962 24.3848 43.1735 24.0279 43.1735 20.5623V10.7148C43.789 10.1966 44.4367 9.93698 45.1173 9.93698V9.93785Z" fill="var(--fill-0, #403F4C)"/>
<path id="Vector_5" d="M55.4381 10.7477L61.4309 24.6763H64.2488L69.3344 10.9413C69.8206 9.67817 70.1765 8.93329 71.7314 8.6416V8.31777H65.3826V8.6416C68.8812 8.83606 69.3344 9.7754 68.8812 11.0386L65.3826 20.4649H65.3175L61.5923 11.0386C61.1392 9.90475 61.2685 8.83606 63.1472 8.6416V8.31777H53.5264V8.6416C54.5309 8.77095 54.984 9.67817 55.4381 10.7469V10.7477Z" fill="var(--fill-0, #403F4C)"/>
<path id="Vector_6" d="M79.3972 22.96V7.99486H79.0734L72.0762 8.77272V9.09654C73.7934 9.25889 73.987 9.38824 73.987 10.5863V22.96C73.987 23.8994 73.7925 24.0287 72.0762 24.1911V24.5149H81.308V24.1911C79.5908 24.0287 79.3963 23.8994 79.3963 22.96H79.3972Z" fill="var(--fill-0, #403F4C)"/>
<path id="Vector_7" d="M93.3508 13.177H93.6747L93.3508 8.99855C92.0547 8.38303 89.9816 7.9941 88.4597 7.9941C84.119 7.9941 82.2082 10.1324 82.2082 12.7238C82.2082 18.6194 90.7273 18.4249 90.7273 22.2474C90.7273 23.6729 89.6908 24.515 88.0387 24.515C85.5766 24.515 83.4384 22.8308 82.3697 19.3321H82.0459L82.4018 23.705C83.698 24.3527 86.1921 24.8388 87.8763 24.8388C92.0226 24.8388 94.5819 22.8308 94.5819 19.7532C94.5819 14.2135 86.2894 14.408 86.2894 10.2947C86.2894 9.03154 87.0342 8.31879 88.3946 8.31879C90.4999 8.31879 92.4766 10.8781 93.3508 13.1778V13.177Z" fill="var(--fill-0, #403F4C)"/>
<path id="Vector_8" d="M107.22 10.5854V21.1135C106.572 21.6639 105.632 22.4096 104.143 22.4096C102.977 22.4096 102.393 21.6318 102.393 20.3686V7.99486H101.81L95.0723 8.77272V9.09654C96.7894 9.25889 96.9839 9.38824 96.9839 10.5863V19.9806C96.9839 23.5434 99.0249 24.8396 101.422 24.8396C103.819 24.8396 105.73 23.382 107.22 21.4382H107.382L107.511 24.8396H107.836L114.54 24.0626V23.7388C112.824 23.5764 112.63 23.4471 112.63 22.249V7.99573H112.046L104.661 8.77359V9.09741C107.026 9.25976 107.22 9.38911 107.22 10.5872V10.5854Z" fill="var(--fill-0, #403F4C)"/>
<path id="Vector_9" d="M129.289 22.474V12.9504C129.353 10.1975 127.085 7.9941 123.069 7.9941C118.405 7.9941 115.78 11.4598 115.78 13.3063C115.78 14.5373 116.785 14.9905 117.853 14.9905C119.052 14.9905 119.894 14.375 119.894 13.6301C119.894 12.6908 117.984 12.367 117.984 11.0708C117.984 9.77467 119.344 9.0298 120.704 9.0298C123.004 9.0298 123.878 10.7791 123.878 12.5927V15.8648C116.85 16.2858 115.295 19.0066 115.295 21.0155C115.295 23.1538 116.687 24.838 119.149 24.838C121.093 24.838 122.712 23.8665 123.814 22.2465H123.878V22.6355C123.878 23.8344 124.721 24.838 126.567 24.838C128.413 24.838 130.065 23.9959 131.394 22.9272L131.362 22.6676C130.941 22.9272 130.422 23.218 130.033 23.218C129.547 23.218 129.289 22.9263 129.289 22.4731V22.474ZM123.878 16.1894V21.9227C123.457 22.1823 123.069 22.441 122.486 22.441C121.449 22.441 120.802 21.6961 120.802 19.7845C120.802 17.3554 121.902 16.4482 123.878 16.1886V16.1894Z" fill="var(--fill-0, #403F4C)"/>
<path id="Vector_10" d="M139.095 22.9597V0.867905H138.771L131.774 1.64577V1.96959C133.491 2.13193 133.685 2.26129 133.685 3.45934V22.9597C133.685 23.8991 133.491 24.0284 131.774 24.1908V24.5146H141.006V24.1908C139.289 24.0284 139.095 23.8991 139.095 22.9597Z" fill="var(--fill-0, #403F4C)"/>
</g>
<g id="Group_2">
<path id="Vector_11" d="M143.773 18.1539V17.5757H146.15V18.0897C146.15 20.9164 148.431 22.8437 152.157 22.8437C155.883 22.8437 158.1 21.2376 158.1 18.3788C158.1 16.5478 156.975 15.263 154.887 14.7169L148.527 13.0466C145.283 12.2114 144.063 10.3162 144.063 7.74651C144.063 3.76344 147.21 1.45068 151.836 1.45068C156.461 1.45068 159.706 4.05253 159.706 7.875V8.42107H157.361V7.93924C157.361 5.27315 155.305 3.44222 151.836 3.44222C148.688 3.44222 146.472 4.88769 146.472 7.55379C146.472 9.41684 147.339 10.4768 149.266 10.9908L155.787 12.7254C158.549 13.4642 160.509 15.2951 160.509 18.186C160.509 22.2976 156.943 24.8352 152.157 24.8352C147.371 24.8352 143.773 22.2655 143.773 18.1539Z" fill="var(--fill-0, #045CFC)"/>
<path id="Vector_12" d="M169.275 24.3846C166.127 24.3846 164.81 22.8106 164.81 20.016V9.92984H162.016V7.9383H164.81V3.21643H167.251V7.9383H171.459V9.92984H167.251V20.016C167.251 21.6863 167.862 22.393 169.693 22.393H171.331V24.3846H169.275Z" fill="var(--fill-0, #045CFC)"/>
<path id="Vector_13" d="M184.824 24.3847V22.3289C184.118 23.4853 181.901 24.7701 179.171 24.7701C175.284 24.7701 172.939 22.5859 172.939 19.5986C172.939 16.4185 175.541 14.4591 179.46 14.4591C182.062 14.4591 183.796 15.5513 184.728 16.5149V13.4633C184.728 11.2148 183.25 9.48027 180.616 9.48027C178.529 9.48027 177.179 10.4439 176.505 11.9536H174.256C175.092 9.2233 177.404 7.55298 180.649 7.55298C184.728 7.55298 187.169 10.2191 187.169 13.4633V24.3847H184.824ZM184.728 19.5673C184.728 17.5115 182.287 16.0661 179.813 16.0661C177.083 16.0661 175.252 17.3509 175.252 19.6316C175.252 21.9122 177.147 23.1971 179.685 23.1971C182.222 23.1971 184.728 21.6873 184.728 19.5673Z" fill="var(--fill-0, #045CFC)"/>
<path id="Vector_14" d="M193.024 0.936733V10.3805C194.02 8.71016 195.947 7.55378 198.517 7.55378C202.66 7.55378 205.326 10.6375 205.326 14.9096V17.4151C205.326 21.5267 202.789 24.771 198.453 24.771C195.722 24.771 193.602 23.3255 192.896 21.8158V24.3855H190.583V0.936733H193.024ZM202.885 15.006C202.885 11.9866 201.183 9.54532 198.067 9.54532C195.337 9.54532 193.024 11.6332 193.024 15.006V17.126C193.024 20.3061 194.791 22.7794 198.035 22.7794C201.44 22.7794 202.885 20.3382 202.885 17.3187V15.006Z" fill="var(--fill-0, #045CFC)"/>
<path id="Vector_15" d="M208.266 0.936733H210.708V24.3855H208.266V0.936733Z" fill="var(--fill-0, #045CFC)"/>
<path id="Vector_16" d="M213.667 17.6078V14.9738C213.667 10.5089 216.205 7.55374 220.83 7.55374C225.456 7.55374 227.8 10.6695 227.8 14.7169V17.1581H216.012V17.7363C216.012 20.5951 217.49 22.9079 220.927 22.9079C223.4 22.9079 224.91 21.5909 225.456 19.7278H227.64C227.094 22.683 224.363 24.7709 220.927 24.7709C216.654 24.7709 213.667 22.0406 213.667 17.6078ZM216.012 15.295H225.52V14.5241C225.52 11.6011 224.042 9.41679 220.83 9.41679C217.297 9.41679 216.012 11.7617 216.012 14.7811V15.295Z" fill="var(--fill-0, #045CFC)"/>
<path id="Vector_17" d="M229.888 19.5986V19.438H232.104V19.5343C232.104 21.5901 234.031 22.9392 236.729 22.9392C239.267 22.9392 241.098 21.9435 241.098 19.8234C241.098 18.6671 240.359 17.8319 239.042 17.5428L234.16 16.4185C231.718 15.8725 230.305 14.3949 230.305 12.2427C230.305 9.15906 232.907 7.55298 236.537 7.55298C239.974 7.55298 242.64 9.64089 242.64 12.6924V12.853H240.423V12.7567C240.423 10.733 238.946 9.38391 236.505 9.38391C234.224 9.38391 232.554 10.3476 232.554 12.1785C232.554 13.3027 233.1 14.0094 234.288 14.2985L239.331 15.487C241.869 16.0973 243.378 17.3501 243.378 19.7271C243.378 22.6501 240.552 24.7702 236.697 24.7702C232.843 24.7702 229.888 22.7786 229.888 19.5986Z" fill="var(--fill-0, #045CFC)"/>
</g>
<path id="Vector_18" d="M261.514 7.52085L261.398 7.42188C261.172 7.22915 260.832 7.25606 260.637 7.48091C260.443 7.70577 260.47 8.04347 260.697 8.2362L260.812 8.33257C261.134 8.60604 261.263 9.0106 261.155 9.41776C261.048 9.82492 260.737 10.1175 260.322 10.1974L258.04 10.6505C257.128 10.8302 256.273 11.1836 255.501 11.6984C255.253 11.8642 255.188 12.1967 255.355 12.4433C255.46 12.5961 255.631 12.6794 255.803 12.6794C255.906 12.6794 256.012 12.6499 256.103 12.5882C256.697 12.1915 257.352 11.9154 258.048 11.7522L257.962 13.1187C257.935 13.5311 257.692 13.874 257.309 14.0381C256.925 14.2013 256.507 14.137 256.189 13.8722L253.936 11.9857C253.451 11.5786 252.908 11.2383 252.331 10.9752C252.058 10.8519 251.74 10.97 251.616 11.2409C251.492 11.5091 251.61 11.8277 251.883 11.951C252.374 12.1733 252.83 12.4598 253.242 12.8062L253.552 13.0657L252.662 13.6899C252.319 13.9287 251.897 13.9556 251.527 13.7568C251.16 13.5588 250.947 13.1942 250.963 12.7758L251.042 10.509C251.071 9.69209 250.956 8.88298 250.699 8.10251C250.607 7.82123 250.302 7.66843 250.019 7.75959C249.736 7.85075 249.581 8.15373 249.673 8.43501C249.873 9.03751 249.964 9.66258 249.962 10.2946L249.01 10.0828C248.595 9.99161 248.29 9.69123 248.196 9.27885C248.101 8.86648 248.239 8.46453 248.571 8.20148L250.281 6.83761C251.153 6.14396 251.852 5.24021 252.305 4.22535L252.48 3.8286L252.774 3.88764C253.743 4.08037 254.722 4.06995 255.685 3.85551L256.53 3.66799L257.083 4.6299C257.485 5.32616 258 5.94515 258.615 6.46778L259.101 6.88015L258.718 7.75872C258.499 8.25964 258.34 8.78488 258.245 9.32313C258.194 9.61483 258.391 9.8909 258.682 9.94212C258.714 9.94733 258.744 9.94994 258.777 9.94994C259.033 9.94994 259.262 9.76762 259.308 9.50544C259.389 9.04966 259.524 8.60256 259.707 8.17891L261.076 5.0388C261.399 4.29393 261.278 3.44488 260.757 2.81981C260.236 2.19561 259.419 1.91954 258.623 2.09664L258.334 2.16088C258.042 2.22513 257.859 2.51162 257.927 2.80158C257.992 3.09067 258.28 3.27038 258.572 3.20614L258.861 3.14189C259.263 3.05074 259.665 3.18704 259.929 3.50391C260.193 3.81992 260.253 4.23576 260.088 4.61341L259.551 5.84618L259.317 5.64825C258.796 5.20636 258.359 4.68373 258.021 4.09426L256.287 1.08004C255.88 0.375096 255.118 -0.0372757 254.301 0.00265926C253.484 0.0451987 252.769 0.5331 252.44 1.27537L252.343 1.49501C252.221 1.76587 252.343 2.08188 252.618 2.20255C252.891 2.32323 253.208 2.20255 253.33 1.92909L253.427 1.70944C253.595 1.3318 253.942 1.09306 254.358 1.07135C254.773 1.04704 255.143 1.25106 255.351 1.60961L255.972 2.68698L255.451 2.80245C254.636 2.98476 253.807 2.99257 252.988 2.83196L250.598 2.35795C249.786 2.19735 248.968 2.50293 248.461 3.15405C247.957 3.80777 247.871 4.67071 248.237 5.40777L248.836 6.61103L247.895 7.36111C247.242 7.88113 246.953 8.70848 247.142 9.51847C247.33 10.3276 247.956 10.944 248.774 11.1263L249.931 11.3833L249.885 12.7367C249.856 13.5562 250.29 14.3072 251.016 14.6952C251.339 14.8697 251.693 14.9548 252.043 14.9548C252.477 14.9548 252.912 14.8237 253.284 14.5607L254.406 13.7759L255.496 14.6892C255.895 15.0217 256.386 15.1953 256.885 15.1953C257.171 15.1953 257.46 15.1389 257.738 15.0208C258.493 14.7022 258.992 13.9973 259.043 13.1855L259.148 11.5239L260.541 11.2478C261.359 11.0872 261.997 10.4865 262.208 9.68602C262.419 8.88471 262.156 8.05389 261.523 7.51564L261.515 7.52085H261.514ZM249.312 3.8095C249.568 3.477 249.968 3.33028 250.381 3.41015L251.392 3.61156L251.314 3.78867C250.947 4.61167 250.386 5.34526 249.692 5.92432L249.201 4.93549C249.015 4.56045 249.055 4.1394 249.312 3.80777V3.81037V3.8095Z" fill="var(--fill-0, #045CFC)"/>
</g>
</svg>
