<svg viewBox="0 0 28.5115 28" fill="none" xmlns="http://www.w3.org/2000/svg">
<g id="Group 195">
<path id="Vector" d="M28.16 3.4819L28.1559 3.48393L28.1022 3.43829C27.9967 3.34904 27.8395 3.36121 27.7493 3.46567C27.659 3.57013 27.6722 3.72631 27.7766 3.81555L27.8304 3.86018C27.9795 3.98695 28.0393 4.17456 27.9896 4.3632C27.9399 4.55183 27.7959 4.68773 27.6032 4.72424L26.5455 4.93416C26.1226 5.01732 25.726 5.18162 25.369 5.41994C25.2544 5.49702 25.224 5.65117 25.3011 5.76475C25.3498 5.83575 25.4289 5.87428 25.509 5.87428C25.5567 5.87428 25.6053 5.8611 25.6479 5.83169C25.9228 5.64813 26.227 5.52035 26.5495 5.44428L26.51 6.07813C26.4978 6.2698 26.3852 6.42801 26.2077 6.50407C26.0303 6.58013 25.8366 6.54971 25.6885 6.427L24.6439 5.5528C24.4188 5.36416 24.1673 5.20596 23.8995 5.08426C23.7728 5.02747 23.6257 5.08223 23.5679 5.20697C23.5101 5.3307 23.5649 5.47876 23.6916 5.53657C23.9188 5.64001 24.1308 5.77287 24.3214 5.9331L24.4654 6.05379L24.0527 6.34282C23.8934 6.45336 23.6977 6.46553 23.5263 6.37426C23.3559 6.28197 23.2576 6.11362 23.2647 5.91992L23.3012 4.86926C23.3154 4.49098 23.2616 4.11574 23.142 3.75369C23.0994 3.62287 22.9584 3.55289 22.8266 3.59447C22.6957 3.63706 22.6237 3.77702 22.6663 3.90784C22.7586 4.18775 22.8012 4.47678 22.8002 4.76987L22.359 4.6715C22.1663 4.6289 22.0254 4.48997 21.9818 4.29931C21.9382 4.10763 22.002 3.92204 22.1552 3.80034L22.9483 3.16853C23.3519 2.84704 23.6764 2.42819 23.8863 1.95763L23.9675 1.77407L24.1034 1.80145C24.5526 1.89069 25.006 1.88562 25.4522 1.78624L25.8437 1.69902L26.1002 2.14525C26.2868 2.46775 26.5252 2.75475 26.8101 2.99713L27.0353 3.18881L26.8578 3.5965C26.7564 3.82874 26.6824 4.07214 26.6388 4.32162C26.6154 4.4565 26.7067 4.5853 26.8416 4.60862C26.8568 4.61065 26.87 4.61268 26.8852 4.61268C27.0038 4.61268 27.1103 4.5285 27.1316 4.4068C27.1692 4.19586 27.232 3.98796 27.3162 3.79223L27.9501 2.33692C28.1001 1.99211 28.0434 1.5976 27.802 1.30857C27.5606 1.01954 27.1823 0.891753 26.8132 0.972885L26.6793 1.0023C26.5444 1.03171 26.4592 1.16456 26.4907 1.29944C26.5211 1.43331 26.654 1.51647 26.7899 1.48706L26.9237 1.45765C27.1103 1.41506 27.2959 1.47895 27.4186 1.62499C27.5413 1.77102 27.5687 1.96371 27.4927 2.13916L27.2442 2.71013L27.1357 2.61784C26.8943 2.41298 26.6915 2.1706 26.5353 1.89779L25.7311 0.500292C25.5425 0.173735 25.1895 -0.0179415 24.8113 0.00132743C24.432 0.0216105 24.1013 0.246753 23.9482 0.591565L23.9036 0.69298C23.8468 0.818735 23.9036 0.964772 24.0314 1.02055C24.1581 1.07633 24.3052 1.02055 24.362 0.893782L24.4066 0.792367C24.4837 0.616918 24.6449 0.506375 24.8376 0.497248C25.0303 0.486092 25.2017 0.580409 25.298 0.74673L25.5861 1.24569L25.3447 1.29944C24.9674 1.38362 24.5831 1.38767 24.2028 1.31263L23.0953 1.09256C22.7191 1.01852 22.3398 1.15949 22.1055 1.46171C21.8712 1.76494 21.8317 2.16452 22.0021 2.50628L22.2799 3.06407L21.8438 3.41192C21.5416 3.65329 21.4078 4.03664 21.495 4.41188C21.5822 4.78711 21.8722 5.07209 22.2515 5.15728L22.788 5.27695L22.7667 5.90369C22.7525 6.284 22.9543 6.63185 23.29 6.81136C23.4401 6.89249 23.6034 6.93204 23.7667 6.93204C23.9675 6.93204 24.1693 6.8712 24.3417 6.7495L24.862 6.38542L25.367 6.80933C25.5516 6.96348 25.7798 7.0436 26.011 7.0436C26.1438 7.0436 26.2777 7.01723 26.4065 6.96247C26.7564 6.8144 26.9876 6.48785 27.012 6.11159L27.0606 5.34185L27.7056 5.21407C28.0849 5.14004 28.3811 4.86115 28.4784 4.48997C28.5758 4.11879 28.4551 3.73341 28.161 3.48393L28.16 3.4819ZM22.501 1.76291C22.6197 1.60977 22.8053 1.54183 22.9959 1.57935L23.4645 1.67265L23.4279 1.7548C23.2576 2.13612 22.9979 2.47586 22.6765 2.74461L22.4493 2.28621C22.3631 2.11279 22.3813 1.91706 22.501 1.76291Z" fill="var(--fill-0, #045CFC)"/>
<path id="Vector_2" d="M5.32531 4.36214C5.32531 1.83386 7.27959 0.799424 9.50159 0.799424C13.1028 0.799424 15.6311 4.74549 16.8958 8.88323H17.2791L16.8958 2.14013C14.7884 0.991099 11.8007 0.416075 9.46306 0.416075C4.21482 0.416075 0 3.09749 0 8.15507C0 16.5066 13.1404 16.0857 13.1404 23.0195C13.1404 26.3145 10.8413 27.6167 8.65782 27.6167C4.40548 27.6167 1.68552 23.9383 0.420873 18.9588H0.0375231L0.420873 26.0843C2.52828 27.2333 5.86079 28 8.61928 28C13.7529 28 18.4647 25.3946 18.4647 19.4953C18.4647 10.799 5.3243 10.9136 5.3243 4.36214H5.32531Z" fill="var(--fill-0, #045CFC)"/>
</g>
</svg>
