<svg viewBox="0 0 28.6643 28" fill="none" xmlns="http://www.w3.org/2000/svg">
<g id="symbol-blue">
<ellipse id="Ellipse" cx="24.9873" cy="3.52109" rx="3.67689" ry="3.52109" fill="url(#paint0_radial_0_16)"/>
<path id="Si" d="M16.8938 8.88428H17.2769L16.8938 2.14207C14.7869 0.992824 11.7989 0.418204 9.46209 0.418204C4.21388 0.418204 0 3.09977 0 8.15643C0 16.5076 13.1397 16.0862 13.1397 23.0199C13.1397 26.3144 10.8412 27.6169 8.65762 27.6169C4.40542 27.6169 1.68555 23.9393 0.421388 18.9593H0.038308L0.421388 26.0846C2.52833 27.2338 5.86113 28 8.61931 28C13.7526 28 18.4645 25.395 18.4645 19.4956C18.4645 10.7997 5.32482 10.9146 5.32482 4.36393C5.32482 1.8356 7.27853 0.801284 9.50039 0.801284C13.1013 0.801284 15.6297 4.74701 16.8938 8.88428Z" fill="var(--fill-0, #045CFC)"/>
</g>
<defs>
<radialGradient id="paint0_radial_0_16" cx="0" cy="0" r="1" gradientTransform="matrix(-3.67036 4.55028 -4.75162 -3.94339 27.4405 1.08546)" gradientUnits="userSpaceOnUse">
<stop stop-color="#045CFC" stop-opacity="0.6"/>
<stop offset="1" stop-color="#045CFC"/>
</radialGradient>
</defs>
</svg>
